<svg width="303.220068359375px" height="58.419921875px" xmlns="http://www.w3.org/2000/svg" viewBox="98.38996582031251 45.7900390625 303.220068359375 58.419921875" style="background: rgba(0, 0, 0, 0);" preserveAspectRatio="xMidYMid"><defs><filter id="editing-metal-beveled"><feGaussianBlur stdDeviation="4" in="SourceAlpha" result="blur"></feGaussianBlur><feSpecularLighting surfaceScale="5" specularConstant="0.8" specularExponent="7.5" lighting-color="#ffffff" in="blur" result="specular"><fePointLight x="-250" y="-50" z="300"></fePointLight></feSpecularLighting><feComposite operator="in" in="specular" in2="SourceAlpha" result="comp"></feComposite><feComposite in="SourceGraphic" in2="comp" operator="arithmetic" k1="0" k2="1" k3="1" k4="0"></feComposite></filter></defs><g filter="url(#editing-metal-beveled)"><g transform="translate(146.1400024369359, 86.15999984741211)"><path d="M9.77-11.09L9.77-11.09L9.77-11.09Q10.13-11.81 10.13-12.48L10.13-12.48L10.13-12.48Q10.13-13.15 10.06-13.52L10.06-13.52L10.06-13.52Q9.98-13.90 9.82-14.18L9.82-14.18L9.82-14.18Q9.46-14.81 8.74-14.81L8.74-14.81L8.74-14.81Q7.85-14.81 7.13-14.16L7.13-14.16L7.13-14.16Q6.36-13.49 6.36-12.43L6.36-12.43L6.36-12.43Q6.36-11.76 6.83-11.24L6.83-11.24L6.83-11.24Q7.30-10.73 8.02-10.25L8.02-10.25L8.02-10.25Q8.74-9.77 9.55-9.29L9.55-9.29L9.55-9.29Q10.37-8.81 11.09-8.23L11.09-8.23L11.09-8.23Q12.74-6.91 12.74-5.14L12.74-5.14L12.74-5.14Q12.74-3.94 12.11-2.92L12.11-2.92L12.11-2.92Q11.47-1.90 10.42-1.15L10.42-1.15L10.42-1.15Q8.11 0.48 5.06 0.48L5.06 0.48L5.06 0.48Q2.59 0.48 1.32-0.32L1.32-0.32L1.32-0.32Q0.05-1.13 0.05-2.35L0.05-2.35L0.05-2.35Q0.05-4.54 1.75-5.09L1.75-5.09L1.75-5.09Q2.23-5.26 2.96-5.26L2.96-5.26L2.96-5.26Q3.70-5.26 4.54-4.94L4.54-4.94L4.54-4.94Q4.15-3.96 4.15-3.07L4.15-3.07L4.15-3.07Q4.15-1.15 5.52-1.15L5.52-1.15L5.52-1.15Q6.41-1.15 7.14-1.80L7.14-1.80L7.14-1.80Q7.87-2.45 7.87-3.18L7.87-3.18L7.87-3.18Q7.87-3.91 7.40-4.44L7.40-4.44L7.40-4.44Q6.94-4.97 6.24-5.39L6.24-5.39L6.24-5.39Q5.54-5.81 4.74-6.22L4.74-6.22L4.74-6.22Q3.94-6.62 3.24-7.20L3.24-7.20L3.24-7.20Q1.61-8.52 1.61-10.63L1.61-10.63L1.61-10.63Q1.61-12 2.28-13.07L2.28-13.07L2.28-13.07Q2.95-14.14 4.03-14.86L4.03-14.86L4.03-14.86Q6.19-16.32 8.84-16.32L8.84-16.32L8.84-16.32Q11.50-16.32 12.78-15.53L12.78-15.53L12.78-15.53Q14.06-14.74 14.06-13.39L14.06-13.39L14.06-13.39Q14.06-12.22 13.15-11.47L13.15-11.47L13.15-11.47Q12.36-10.85 11.40-10.85L11.40-10.85L11.40-10.85Q10.44-10.85 9.77-11.09ZM14.95-2.40L14.95-2.40L14.95-2.40Q14.95-3.05 15.29-4.68L15.29-4.68L16.56-11.16L15.14-11.16L15.24-11.88L15.24-11.88Q18.12-12.74 20.90-14.86L20.90-14.86L22.06-14.86L21.48-12.24L23.35-12.24L23.14-11.16L21.29-11.16L20.06-4.68L20.06-4.68Q19.75-3.19 19.75-2.69L19.75-2.69L19.75-2.69Q19.75-1.54 20.76-1.30L20.76-1.30L20.76-1.30Q20.52-0.48 19.66 0L19.66 0L19.66 0Q18.79 0.48 17.57 0.48L17.57 0.48L17.57 0.48Q16.34 0.48 15.65-0.29L15.65-0.29L15.65-0.29Q14.95-1.06 14.95-2.40ZM28.99-1.32L28.99-1.32L28.99-1.32Q28.25 0.48 25.87 0.48L25.87 0.48L25.87 0.48Q24.65 0.48 23.88-0.36L23.88-0.36L23.88-0.36Q23.23-1.10 23.23-1.85L23.23-1.85L23.23-1.85Q23.23-3.79 24.12-7.58L24.12-7.58L25.01-12.24L29.88-12.72L28.42-5.14L28.42-5.14Q28.01-3.36 28.01-2.74L28.01-2.74L28.01-2.74Q28.01-1.37 28.99-1.32ZM25.44-15.58L25.44-15.58L25.44-15.58Q25.44-16.51 26.22-17.02L26.22-17.02L26.22-17.02Q27-17.52 28.13-17.52L28.13-17.52L28.13-17.52Q29.26-17.52 29.94-17.02L29.94-17.02L29.94-17.02Q30.62-16.51 30.62-15.58L30.62-15.58L30.62-15.58Q30.62-14.64 29.87-14.16L29.87-14.16L29.87-14.16Q29.11-13.68 27.98-13.68L27.98-13.68L27.98-13.68Q26.86-13.68 26.15-14.16L26.15-14.16L26.15-14.16Q25.44-14.64 25.44-15.58ZM36.77-1.32L36.77-1.32L36.77-1.32Q36.02 0.48 33.65 0.48L33.65 0.48L33.65 0.48Q32.45 0.48 31.68-0.36L31.68-0.36L31.68-0.36Q31.06-1.06 31.06-1.85L31.06-1.85L31.06-1.85Q31.06-3.65 31.90-7.58L31.90-7.58L33.65-16.80L38.52-17.28L36.19-5.14L36.19-5.14Q35.78-3.36 35.78-2.74L35.78-2.74L35.78-2.74Q35.78-1.37 36.77-1.32ZM44.54-1.32L44.54-1.32L44.54-1.32Q43.80 0.48 41.42 0.48L41.42 0.48L41.42 0.48Q40.22 0.48 39.46-0.36L39.46-0.36L39.46-0.36Q38.83-1.06 38.83-1.85L38.83-1.85L38.83-1.85Q38.83-3.65 39.67-7.58L39.67-7.58L41.42-16.80L46.30-17.28L43.97-5.14L43.97-5.14Q43.56-3.36 43.56-2.74L43.56-2.74L43.56-2.74Q43.56-1.37 44.54-1.32ZM64.06-4.97L64.06-4.97L64.06-4.97Q64.68-4.51 64.68-3.54L64.68-3.54L64.68-3.54Q64.68-2.57 64.26-1.88L64.26-1.88L64.26-1.88Q63.84-1.20 63.02-0.67L63.02-0.67L63.02-0.67Q61.27 0.46 58.21 0.46L58.21 0.46L58.21 0.46Q55.15 0.46 53.48-1.14L53.48-1.14L53.48-1.14Q51.82-2.74 51.82-5.57L51.82-5.57L51.82-5.57Q51.82-9.58 53.90-12.62L53.90-12.62L53.90-12.62Q55.49-14.88 58.32-15.84L58.32-15.84L58.32-15.84Q59.78-16.32 61.22-16.32L61.22-16.32L61.22-16.32Q62.66-16.32 63.55-16.13L63.55-16.13L63.55-16.13Q64.44-15.94 65.11-15.55L65.11-15.55L65.11-15.55Q66.58-14.71 66.58-13.37L66.58-13.37L66.58-13.37Q66.58-12.14 65.42-11.23L65.42-11.23L65.42-11.23Q64.37-10.42 63.50-10.42L63.50-10.42L63.50-10.42Q62.64-10.42 62.28-10.54L62.28-10.54L62.28-10.54Q62.38-11.40 62.38-11.96L62.38-11.96L62.38-11.96Q62.38-12.53 62.35-12.94L62.35-12.94L62.35-12.94Q62.33-13.34 62.21-13.73L62.21-13.73L62.21-13.73Q61.97-14.62 61.24-14.62L61.24-14.62L61.24-14.62Q60.50-14.62 59.77-13.93L59.77-13.93L59.77-13.93Q59.04-13.25 58.42-12.10L58.42-12.10L58.42-12.10Q57.00-9.48 57.00-6.38L57.00-6.38L57.00-6.38Q57.00-4.90 57.84-4.04L57.84-4.04L57.84-4.04Q58.68-3.19 60.48-3.19L60.48-3.19L60.48-3.19Q61.82-3.19 63.10-4.08L63.10-4.08L63.10-4.08Q63.65-4.46 64.06-4.97ZM71.90 0.48L71.90 0.48L71.90 0.48Q66.62 0.48 66.62-4.49L66.62-4.49L66.62-4.49Q66.62-8.02 68.57-10.30L68.57-10.30L68.57-10.30Q70.63-12.72 74.21-12.72L74.21-12.72L74.21-12.72Q76.80-12.72 78.12-11.52L78.12-11.52L78.12-11.52Q79.44-10.32 79.44-7.80L79.44-7.80L79.44-7.80Q79.44-3.96 77.38-1.73L77.38-1.73L77.38-1.73Q75.36 0.48 71.90 0.48ZM72.53-9.96L72.53-9.96L72.53-9.96Q72.24-9.31 72.01-8.34L72.01-8.34L72.01-8.34Q71.78-7.37 71.50-5.83L71.50-5.83L71.50-5.83Q71.21-4.30 71.21-2.40L71.21-2.40L71.21-2.40Q71.21-1.78 71.41-1.37L71.41-1.37L71.41-1.37Q71.62-0.96 72.17-0.96L72.17-0.96L72.17-0.96Q72.72-0.96 73.07-1.22L73.07-1.22L73.07-1.22Q73.42-1.49 73.68-2.11L73.68-2.11L73.68-2.11Q74.16-3.22 74.54-5.27L74.54-5.27L74.54-5.27Q74.93-7.32 74.96-8.21L74.96-8.21L74.96-8.21Q75.00-9.10 75.00-9.76L75.00-9.76L75.00-9.76Q75.00-10.42 74.81-10.85L74.81-10.85L74.81-10.85Q74.62-11.28 74.08-11.28L74.08-11.28L74.08-11.28Q73.54-11.28 73.18-10.94L73.18-10.94L73.18-10.94Q72.82-10.61 72.53-9.96ZM88.56-1.01L88.56-1.01L88.56-1.01Q87.41 0.48 84.55 0.48L84.55 0.48L84.55 0.48Q83.06 0.48 81.98-0.42L81.98-0.42L81.98-0.42Q80.90-1.32 80.90-2.62L80.90-2.62L80.90-2.62Q80.90-3.34 80.98-3.70L80.98-3.70L82.58-12.24L87.46-12.72L85.70-3.46L85.70-3.46Q85.61-2.93 85.61-2.62L85.61-2.62L85.61-2.62Q85.61-1.22 86.45-1.22L86.45-1.22L86.45-1.22Q87.38-1.22 88.06-2.50L88.06-2.50L88.06-2.50Q88.27-2.90 88.37-3.43L88.37-3.43L90.07-12.24L94.80-12.72L93.02-3.36L93.02-3.36Q92.95-3 92.95-2.62L92.95-2.62L92.95-2.62Q92.95-2.23 93.17-1.81L93.17-1.81L93.17-1.81Q93.38-1.39 94.08-1.30L94.08-1.30L94.08-1.30Q93.94-0.72 93.43-0.34L93.43-0.34L93.43-0.34Q92.38 0.48 91.24 0.48L91.24 0.48L91.24 0.48Q90.10 0.48 89.42 0.07L89.42 0.07L89.42 0.07Q88.75-0.34 88.56-1.01ZM106.25 0.48L106.25 0.48L106.25 0.48Q103.34 0.48 103.34-1.78L103.34-1.78L103.34-1.78Q103.37-2.40 103.56-3.46L103.56-3.46L103.99-5.66L103.99-5.66Q104.64-8.78 104.64-9.48L104.64-9.48L104.64-9.48Q104.64-10.87 103.82-10.87L103.82-10.87L103.82-10.87Q102.46-10.87 101.74-7.30L101.74-7.30L100.32 0L95.50 0.48L97.99-12.26L101.93-12.72L101.54-10.37L101.54-10.37Q102.67-12.72 106.13-12.72L106.13-12.72L106.13-12.72Q107.81-12.72 108.52-12.01L108.52-12.01L108.52-12.01Q109.22-11.30 109.22-9.72L109.22-9.72L109.22-9.72Q109.22-8.23 108.46-4.75L108.46-4.75L108.46-4.75Q108.10-3.19 108.10-2.60L108.10-2.60L108.10-2.60Q108.10-2.02 108.42-1.68L108.42-1.68L108.42-1.68Q108.74-1.34 109.22-1.30L109.22-1.30L109.22-1.30Q108.98-0.48 108.16 0L108.16 0L108.16 0Q107.33 0.48 106.25 0.48ZM111.53-2.40L111.53-2.40L111.53-2.40Q111.53-3.05 111.86-4.68L111.86-4.68L113.14-11.16L111.72-11.16L111.82-11.88L111.82-11.88Q114.70-12.74 117.48-14.86L117.48-14.86L118.63-14.86L118.06-12.24L119.93-12.24L119.71-11.16L117.86-11.16L116.64-4.68L116.64-4.68Q116.33-3.19 116.33-2.69L116.33-2.69L116.33-2.69Q116.33-1.54 117.34-1.30L117.34-1.30L117.34-1.30Q117.10-0.48 116.23 0L116.23 0L116.23 0Q115.37 0.48 114.14 0.48L114.14 0.48L114.14 0.48Q112.92 0.48 112.22-0.29L112.22-0.29L112.22-0.29Q111.53-1.06 111.53-2.40ZM125.57-1.32L125.57-1.32L125.57-1.32Q124.82 0.48 122.45 0.48L122.45 0.48L122.45 0.48Q121.22 0.48 120.46-0.36L120.46-0.36L120.46-0.36Q119.81-1.10 119.81-1.85L119.81-1.85L119.81-1.85Q119.81-3.79 120.70-7.58L120.70-7.58L121.58-12.24L126.46-12.72L124.99-5.14L124.99-5.14Q124.58-3.36 124.58-2.74L124.58-2.74L124.58-2.74Q124.58-1.37 125.57-1.32ZM122.02-15.58L122.02-15.58L122.02-15.58Q122.02-16.51 122.80-17.02L122.80-17.02L122.80-17.02Q123.58-17.52 124.70-17.52L124.70-17.52L124.70-17.52Q125.83-17.52 126.52-17.02L126.52-17.02L126.52-17.02Q127.20-16.51 127.20-15.58L127.20-15.58L127.20-15.58Q127.20-14.64 126.44-14.16L126.44-14.16L126.44-14.16Q125.69-13.68 124.56-13.68L124.56-13.68L124.56-13.68Q123.43-13.68 122.72-14.16L122.72-14.16L122.72-14.16Q122.02-14.64 122.02-15.58ZM137.76 0.48L137.76 0.48L137.76 0.48Q134.86 0.48 134.86-1.78L134.86-1.78L134.86-1.78Q134.88-2.40 135.07-3.46L135.07-3.46L135.50-5.66L135.50-5.66Q136.15-8.78 136.15-9.48L136.15-9.48L136.15-9.48Q136.15-10.87 135.34-10.87L135.34-10.87L135.34-10.87Q133.97-10.87 133.25-7.30L133.25-7.30L131.83 0L127.01 0.48L129.50-12.26L133.44-12.72L133.06-10.37L133.06-10.37Q134.18-12.72 137.64-12.72L137.64-12.72L137.64-12.72Q139.32-12.72 140.03-12.01L140.03-12.01L140.03-12.01Q140.74-11.30 140.74-9.72L140.74-9.72L140.74-9.72Q140.74-8.23 139.97-4.75L139.97-4.75L139.97-4.75Q139.61-3.19 139.61-2.60L139.61-2.60L139.61-2.60Q139.61-2.02 139.93-1.68L139.93-1.68L139.93-1.68Q140.26-1.34 140.74-1.30L140.74-1.30L140.74-1.30Q140.50-0.48 139.67 0L139.67 0L139.67 0Q138.84 0.48 137.76 0.48ZM144.36-10.03L144.36-10.03L144.36-10.03Q145.18-11.18 146.41-11.95L146.41-11.95L146.41-11.95Q147.65-12.72 149.16-12.72L149.16-12.72L149.16-12.72Q150.67-12.72 151.39-12.24L151.39-12.24L156.10-12.72L154.46-3.50L154.46-3.50Q153.62 1.20 151.85 3.05L151.85 3.05L151.85 3.05Q150.14 4.80 146.83 4.80L146.83 4.80L146.83 4.80Q144.31 4.80 142.87 4.01L142.87 4.01L142.87 4.01Q141.43 3.22 141.43 1.90L141.43 1.90L141.43 1.90Q141.43 0.91 142.18 0.35L142.18 0.35L142.18 0.35Q142.92-0.22 144.07-0.22L144.07-0.22L144.07-0.22Q145.08-0.22 145.85 0.24L145.85 0.24L145.85 0.24Q146.30 0.48 146.52 0.82L146.52 0.82L146.52 0.82Q145.97 1.30 145.97 2.09L145.97 2.09L145.97 2.09Q145.97 3.12 146.93 3.12L146.93 3.12L146.93 3.12Q148.54 3.12 149.45-0.67L149.45-0.67L149.45-0.67Q149.71-1.70 149.93-2.74L149.93-2.74L149.93-2.74Q148.85-1.42 146.40-1.42L146.40-1.42L146.40-1.42Q144.70-1.42 143.71-2.23L143.71-2.23L143.71-2.23Q142.73-3.05 142.73-4.97L142.73-4.97L142.73-4.97Q142.73-6.17 143.14-7.52L143.14-7.52L143.14-7.52Q143.54-8.88 144.36-10.03ZM147.48-4.90L147.48-4.90L147.48-4.90Q147.48-3.26 148.32-3.26L148.32-3.26L148.32-3.26Q148.90-3.26 149.45-3.89L149.45-3.89L149.45-3.89Q149.88-4.39 150.05-5.14L150.05-5.14L151.27-11.30L151.27-11.30Q151.15-11.33 151.03-11.38L151.03-11.38L151.03-11.38Q150.79-11.47 150.48-11.47L150.48-11.47L150.48-11.47Q149.02-11.47 148.15-9.07L148.15-9.07L148.15-9.07Q147.48-7.20 147.48-4.90ZM156.31-1.42L156.31-1.42L156.31-1.42Q156.31-2.33 157.02-2.83L157.02-2.83L157.02-2.83Q157.73-3.34 158.74-3.34L158.74-3.34L158.74-3.34Q159.74-3.34 160.36-2.83L160.36-2.83L160.36-2.83Q160.97-2.33 160.97-1.42L160.97-1.42L160.97-1.42Q160.97-0.50 160.28-0.01L160.28-0.01L160.28-0.01Q159.60 0.48 158.59 0.48L158.59 0.48L158.59 0.48Q157.58 0.48 156.95-0.01L156.95-0.01L156.95-0.01Q156.31-0.50 156.31-1.42ZM162.48-1.42L162.48-1.42L162.48-1.42Q162.48-2.33 163.19-2.83L163.19-2.83L163.19-2.83Q163.90-3.34 164.90-3.34L164.90-3.34L164.90-3.34Q165.91-3.34 166.52-2.83L166.52-2.83L166.52-2.83Q167.14-2.33 167.14-1.42L167.14-1.42L167.14-1.42Q167.14-0.50 166.45-0.01L166.45-0.01L166.45-0.01Q165.77 0.48 164.76 0.48L164.76 0.48L164.76 0.48Q163.75 0.48 163.12-0.01L163.12-0.01L163.12-0.01Q162.48-0.50 162.48-1.42ZM168.65-1.42L168.65-1.42L168.65-1.42Q168.65-2.33 169.36-2.83L169.36-2.83L169.36-2.83Q170.06-3.34 171.07-3.34L171.07-3.34L171.07-3.34Q172.08-3.34 172.69-2.83L172.69-2.83L172.69-2.83Q173.30-2.33 173.30-1.42L173.30-1.42L173.30-1.42Q173.30-0.50 172.62-0.01L172.62-0.01L172.62-0.01Q171.94 0.48 170.93 0.48L170.93 0.48L170.93 0.48Q169.92 0.48 169.28-0.01L169.28-0.01L169.28-0.01Q168.65-0.50 168.65-1.42ZM174.82-1.42L174.82-1.42L174.82-1.42Q174.82-2.33 175.52-2.83L175.52-2.83L175.52-2.83Q176.23-3.34 177.24-3.34L177.24-3.34L177.24-3.34Q178.25-3.34 178.86-2.83L178.86-2.83L178.86-2.83Q179.47-2.33 179.47-1.42L179.47-1.42L179.47-1.42Q179.47-0.50 178.79-0.01L178.79-0.01L178.79-0.01Q178.10 0.48 177.10 0.48L177.10 0.48L177.10 0.48Q176.09 0.48 175.45-0.01L175.45-0.01L175.45-0.01Q174.82-0.50 174.82-1.42ZM180.98-1.42L180.98-1.42L180.98-1.42Q180.98-2.33 181.69-2.83L181.69-2.83L181.69-2.83Q182.40-3.34 183.41-3.34L183.41-3.34L183.41-3.34Q184.42-3.34 185.03-2.83L185.03-2.83L185.03-2.83Q185.64-2.33 185.64-1.42L185.64-1.42L185.64-1.42Q185.64-0.50 184.96-0.01L184.96-0.01L184.96-0.01Q184.27 0.48 183.26 0.48L183.26 0.48L183.26 0.48Q182.26 0.48 181.62-0.01L181.62-0.01L181.62-0.01Q180.98-0.50 180.98-1.42ZM187.15-1.42L187.15-1.42L187.15-1.42Q187.15-2.33 187.86-2.83L187.86-2.83L187.86-2.83Q188.57-3.34 189.58-3.34L189.58-3.34L189.58-3.34Q190.58-3.34 191.20-2.83L191.20-2.83L191.20-2.83Q191.81-2.33 191.81-1.42L191.81-1.42L191.81-1.42Q191.81-0.50 191.12-0.01L191.12-0.01L191.12-0.01Q190.44 0.48 189.43 0.48L189.43 0.48L189.43 0.48Q188.42 0.48 187.79-0.01L187.79-0.01L187.79-0.01Q187.15-0.50 187.15-1.42ZM193.39-1.42L193.39-1.42L193.39-1.42Q193.39-2.33 194.08-2.82L194.08-2.82L194.08-2.82Q194.76-3.31 195.77-3.31L195.77-3.31L195.77-3.31Q196.78-3.31 197.41-2.82L197.41-2.82L197.41-2.82Q198.05-2.33 198.05-1.42L198.05-1.42L198.05-1.42Q198.05-0.50 197.34 0L197.34 0L197.34 0Q196.63 0.50 195.62 0.50L195.62 0.50L195.62 0.50Q194.62 0.50 194.00 0L194.00 0L194.00 0Q193.39-0.50 193.39-1.42ZM194.69-5.93L194.69-5.93L194.69-5.93Q194.69-6.10 194.74-6.34L194.74-6.34L196.61-15.98L196.61-15.98Q197.50-16.32 198.55-16.32L198.55-16.32L198.55-16.32Q199.61-16.32 200.16-15.65L200.16-15.65L200.16-15.65Q200.71-14.98 200.71-13.98L200.71-13.98L200.71-13.98Q200.71-12.98 200.33-11.87L200.33-11.87L200.33-11.87Q199.94-10.75 199.48-9.62L199.48-9.62L199.48-9.62Q199.01-8.50 198.61-7.33L198.61-7.33L198.61-7.33Q198.22-6.17 198.19-4.94L198.19-4.94L198.19-4.94Q197.64-4.32 196.68-4.32L196.68-4.32L196.68-4.32Q195.72-4.32 195.20-4.76L195.20-4.76L195.20-4.76Q194.69-5.21 194.69-5.93ZM200.35-1.42L200.35-1.42L200.35-1.42Q200.35-2.33 201.04-2.82L201.04-2.82L201.04-2.82Q201.72-3.31 202.73-3.31L202.73-3.31L202.73-3.31Q203.74-3.31 204.37-2.82L204.37-2.82L204.37-2.82Q205.01-2.33 205.01-1.42L205.01-1.42L205.01-1.42Q205.01-0.50 204.30 0L204.30 0L204.30 0Q203.59 0.50 202.58 0.50L202.58 0.50L202.58 0.50Q201.58 0.50 200.96 0L200.96 0L200.96 0Q200.35-0.50 200.35-1.42ZM201.65-5.93L201.65-5.93L201.65-5.93Q201.65-6.10 201.70-6.34L201.70-6.34L203.57-15.98L203.57-15.98Q204.46-16.32 205.51-16.32L205.51-16.32L205.51-16.32Q206.57-16.32 207.12-15.65L207.12-15.65L207.12-15.65Q207.67-14.98 207.67-13.98L207.67-13.98L207.67-13.98Q207.67-12.98 207.29-11.87L207.29-11.87L207.29-11.87Q206.90-10.75 206.44-9.62L206.44-9.62L206.44-9.62Q205.97-8.50 205.57-7.33L205.57-7.33L205.57-7.33Q205.18-6.17 205.15-4.94L205.15-4.94L205.15-4.94Q204.60-4.32 203.64-4.32L203.64-4.32L203.64-4.32Q202.68-4.32 202.16-4.76L202.16-4.76L202.16-4.76Q201.65-5.21 201.65-5.93Z" fill="#444"></path></g></g><style>text {
  font-size: 64px;
  font-family: Arial Black;
  dominant-baseline: central;
  text-anchor: middle;
}</style></svg>